<svg xmlns="http://www.w3.org/2000/svg" viewBox="0 0 370.46 425.54"><defs><style>.cls-1{isolation:isolate;}.cls-2,.cls-3{fill:#231815;}.cls-3{mix-blend-mode:multiply;}</style></defs><title>logo_header</title><g class="cls-1"><g id="レイヤー_2" data-name="レイヤー 2"><g id="レイヤー_1-2" data-name="レイヤー 1"><path class="cls-2" d="M79,265.91c12.81-11.41,10.8-25.67.2-33.65-.79-.42-1.14-.32-2,.24C62.68,240.94,77.66,257.8,79,265.91Z"/><path class="cls-3" d="M79,265.91c12.81-11.41,10.9-26.18-.52-34.15C61.85,239.84,77.66,257.8,79,265.91Z"/><path class="cls-3" d="M41.88,260.87c17,2.49,26.85-8.63,25.63-22.5C50.66,230.83,47.26,254.66,41.88,260.87Z"/><path class="cls-3" d="M127,174.68c14.07-9.81,13.65-24.68,3.25-33.94C112.78,146.79,126.63,166.47,127,174.68Z"/><path class="cls-3" d="M67.44,139.16c14.33,9.44,28,3.53,32.73-9.56C88.09,115.65,75,135.81,67.44,139.16Z"/><path class="cls-3" d="M37.26,110.18c12.67,11.57,27.08,7.87,33.82-4.31C61.33,90.2,45.19,108.05,37.26,110.18Z"/><path class="cls-3" d="M56.34,80.56c7,15.67,21.65,18.06,32.71,9.6C86.4,71.9,64.46,81.78,56.34,80.56Z"/><path class="cls-3" d="M25.14,78.21c3,16.89,16.69,22.73,29.46,17.17C56.41,77,32.74,81.35,25.14,78.21Z"/><path class="cls-3" d="M50.46,54.24c3,16.89,16.69,22.74,29.45,17.18C81.72,53.05,58.05,57.38,50.46,54.24Z"/><path class="cls-3" d="M66,31.2C61.28,47.71,71,59,84.94,59.52,94.59,43.78,71.41,37.34,66,31.2Z"/><path class="cls-3" d="M112.54,32.07C95.41,33,87.92,45.85,91.87,59.2,109.88,63.25,108.49,39.22,112.54,32.07Z"/><path class="cls-3" d="M125.47,53.15C108.4,51.5,99.08,63.1,101,76.89,118.2,83.58,120.4,59.61,125.47,53.15Z"/><path class="cls-3" d="M147.31,48.55c-17.14.73-24.76,13.52-21,26.91C144.33,79.69,143.18,55.66,147.31,48.55Z"/><path class="cls-3" d="M161.92,15.23C144.78,16,137.17,28.75,141,42.14,158.94,46.38,157.8,22.34,161.92,15.23Z"/><path class="cls-3" d="M125.88,16.8c-12.66,11.58-10.28,26.27,1.25,34.08C143.61,42.58,127.29,24.9,125.88,16.8Z"/><path class="cls-3" d="M197.37.3c-12.65,11.58-10.27,26.27,1.25,34.08C215.11,26.08,198.78,8.4,197.37.3Z"/><path class="cls-3" d="M158.47,43.6c-12.65,11.58-10.27,26.27,1.25,34.08C176.21,69.38,159.89,51.7,158.47,43.6Z"/><path class="cls-3" d="M159,89.06c-10.17-13.82-25-13-34-2.36C131.52,104,150.82,89.6,159,89.06Z"/><path class="cls-3" d="M159,115.46c-6.91-15.7-21.59-18.16-32.68-9.74C128.86,124,150.84,114.2,159,115.46Z"/><path class="cls-3" d="M208.83,44.52c-9.5,14.29-3.65,28,9.42,32.77C232.25,65.26,212.15,52,208.83,44.52Z"/><path class="cls-3" d="M241.76,37c-16.33,5.25-20.28,19.6-13,31.5C247.15,67.84,239.67,45,241.76,37Z"/><path class="cls-3" d="M266.44,27.13c-16.33,5.25-20.28,19.6-13.06,31.5C271.83,58,264.35,35.07,266.44,27.13Z"/><path class="cls-3" d="M246,59.64c-4.68,16.5,5.07,27.74,19,28.33C274.63,72.24,251.45,65.78,246,59.64Z"/><path class="cls-3" d="M271,49c-8.46,14.93-1.65,28.16,11.72,32C295.83,68.05,274.84,56.28,271,49Z"/><path class="cls-3" d="M298,42.34c-14.15,9.7-13.84,24.58-3.52,33.92C312,70.34,298.26,50.56,298,42.34Z"/><path class="cls-3" d="M331.44,74.86c-13.75-10.26-27.73-5.17-33.24,7.62C309.45,97.12,323.75,77.76,331.44,74.86Z"/><path class="cls-3" d="M329.38,98c-11.44-12.78-26.16-10.55-34.08.9C303.42,115.48,321.27,99.34,329.38,98Z"/><path class="cls-3" d="M241.63,128.05c-16.3,5.34-20.17,19.71-12.88,31.57C247.19,158.84,239.59,136,241.63,128.05Z"/><path class="cls-3" d="M316,106.68c-17.13.91-24.61,13.78-20.66,27.13C313.35,137.86,312,113.83,316,106.68Z"/><path class="cls-3" d="M359.84,105.44c-13.74-10.27-27.72-5.19-33.24,7.59C337.83,127.68,352.15,108.34,359.84,105.44Z"/><path class="cls-3" d="M350.25,127.72c-13.74-10.27-27.72-5.19-33.24,7.59C328.24,150,342.56,130.62,350.25,127.72Z"/><path class="cls-3" d="M219.07,211.62c-6.37,15.93,2.16,28.12,15.93,30.15C246.24,227.13,223.86,218.3,219.07,211.62Z"/><path class="cls-3" d="M235.68,196.47c-6.37,15.92,2.16,28.12,15.93,30.14C262.85,212,240.47,203.14,235.68,196.47Z"/><path class="cls-3" d="M40.39,244c16.75-3.72,22-17.64,15.91-30.16C37.87,212.82,43.21,236.29,40.39,244Z"/><path class="cls-3" d="M15.69,236.42c16.93,2.74,27-8.24,25.94-22.13C24.9,206.52,21.16,230.29,15.69,236.42Z"/><path class="cls-3" d="M2.26,198.14c7,15.68,21.64,18.09,32.71,9.64C32.34,189.51,10.39,199.37,2.26,198.14Z"/><path class="cls-3" d="M.26,168.26c-2.13,17,9.21,26.65,23,25.12C30.47,176.37,6.58,173.5.26,168.26Z"/><path class="cls-3" d="M40.21,170.71C27.58,182.31,30,197,41.52,204.78,58,196.45,41.64,178.8,40.21,170.71Z"/><path class="cls-3" d="M69.84,171.48c-15.9,6.44-18.79,21-10.71,32.38C77.48,201.83,68.34,179.56,69.84,171.48Z"/><path class="cls-3" d="M88.85,159.71c3.15,16.87,16.88,22.6,29.6,16.93C120.1,158.26,96.47,162.79,88.85,159.71Z"/><path class="cls-3" d="M248.67,113.66c-13.72-10.29-27.71-5.22-33.24,7.56C226.64,135.88,241,116.55,248.67,113.66Z"/><path class="cls-3" d="M52.18,151.68c7,15.67,21.68,18,32.73,9.56C82.23,143,60.3,152.9,52.18,151.68Z"/><path class="cls-3" d="M12.41,151.68c7,15.66,21.68,18,32.73,9.55C42.46,143,20.53,152.89,12.41,151.68Z"/><path class="cls-3" d="M10.37,127c3.07,16.88,16.78,22.67,29.52,17C41.63,125.66,18,130.09,10.37,127Z"/><path class="cls-3" d="M36.32,120.43c3.08,16.87,16.78,22.66,29.52,17C67.58,119.11,43.92,123.54,36.32,120.43Z"/><path class="cls-3" d="M79.57,175.46c16.79,3.51,22.23,17.36,16.29,30C77.45,206.68,82.48,183.15,79.57,175.46Z"/><path class="cls-3" d="M106.81,180.33c16.8,3.5,22.23,17.36,16.29,29.95C104.69,211.54,109.72,188,106.81,180.33Z"/><path class="cls-3" d="M172.11,0c13.22,10.93,11.57,25.72.45,34.09C155.68,26.63,171.1,8.15,172.11,0Z"/><path class="cls-3" d="M103.06,157.42c-6.92-15.7,1.17-28.18,14.87-30.69C129.68,141,107.61,150.58,103.06,157.42Z"/><path class="cls-3" d="M70.83,122.27c-1-17.13,11-26,24.66-23.55C101.52,116.16,77.49,117.45,70.83,122.27Z"/><path class="cls-3" d="M9.09,123.35c-1-17.13,11-26,24.65-23.55C39.77,117.24,15.74,118.53,9.09,123.35Z"/><path class="cls-3" d="M253.82,289.41c-15-8.36-16-23.21-6.6-33.45C265.17,260.25,253.34,281.21,253.82,289.41Z"/><path class="cls-3" d="M286.81,194.06c-16.64-4.17-21.54-18.22-15.11-30.57C290.15,163,284.2,186.26,286.81,194.06Z"/><path class="cls-3" d="M320.63,202.34c-16.65,4.09-27.54-6.05-27.63-20C309.05,173.27,314.69,196.67,320.63,202.34Z"/><path class="cls-3" d="M357.58,210.36c-15.36,7.64-28.2.13-31.33-13.44C339.93,184.53,350.54,206.13,357.58,210.36Z"/><path class="cls-3" d="M340.75,188.18c-16.66,4.1-27.55-6-27.64-20C329.17,159.12,334.8,182.51,340.75,188.18Z"/><path class="cls-3" d="M370.46,174.79c-13.8,10.19-27.76,5-33.2-7.79C348.58,152.42,362.79,171.84,370.46,174.79Z"/><path class="cls-3" d="M370,152.1c-13.8,10.19-27.75,5-33.19-7.79C348.12,129.73,362.32,149.15,370,152.1Z"/><path class="cls-3" d="M337.14,158.82c-15.3,7.76-28.2.34-31.44-13.2C319.28,133.13,330.06,154.64,337.14,158.82Z"/><path class="cls-3" d="M307.45,177.37c-16.59-4.37-21.3-18.48-14.73-30.76C311.18,146.3,304.94,169.54,307.45,177.37Z"/><path class="cls-3" d="M247.77,126.86c1.66-17.07,14.84-24,28-19.45C279,125.57,255.09,123.13,247.77,126.86Z"/><path class="cls-3" d="M233.75,98.25c10.23-13.77,25.08-12.9,34-2.23C261.2,113.27,242,98.83,233.75,98.25Z"/><path class="cls-3" d="M173.06,133.56c-4.29-16.61,5.73-27.62,19.65-27.87C202,121.64,178.66,127.55,173.06,133.56Z"/><path class="cls-3" d="M150.45,100.9c9.24-14.45,24.12-14.62,33.79-4.6C178.88,114,158.67,100.91,150.45,100.9Z"/><path class="cls-3" d="M198,62.54c14.14,9.71,13.82,24.59,3.49,33.92C184,90.53,197.73,70.75,198,62.54Z"/><path class="cls-3" d="M170.11,58.54c16.81,3.38,22.35,17.2,16.5,29.83C168.21,89.77,173.07,66.2,170.11,58.54Z"/><path class="cls-3" d="M178.62,31.59C195.43,35,201,48.79,195.12,61.43,176.72,62.82,181.58,39.25,178.62,31.59Z"/><path class="cls-3" d="M209.23,12.78C225.51,18.2,229.31,32.59,222,44.41,203.52,43.54,211.24,20.74,209.23,12.78Z"/><path class="cls-3" d="M286.69,271.05c-16.15,5.78-28-3.18-29.54-17C272.19,243.33,280.19,266,286.69,271.05Z"/><path class="cls-3" d="M305,271.25c-17.16-.32-25.08-12.91-21.59-26.39C301.23,240.18,300.67,264.24,305,271.25Z"/><path class="cls-3" d="M326.4,254.75c-16.14,5.8-28-3.16-29.55-17C311.88,227,319.9,249.73,326.4,254.75Z"/><path class="cls-3" d="M260.57,201.59c16.87,3.11,22.63,16.82,17,29.56C259.19,232.85,263.66,209.2,260.57,201.59Z"/><path class="cls-3" d="M289.43,194.92c14.67,8.89,15.21,23.76,5.43,33.67C277.07,223.67,289.62,203.14,289.43,194.92Z"/><path class="cls-3" d="M332.05,214.46c-3.66,16.75-17.56,22.06-30.1,16C300.86,212.05,324.34,217.3,332.05,214.46Z"/><path class="cls-3" d="M262.65,359.3c-27.12-6-45.56-3.79-53.69-21.15s-12.83-53-14-65.07c14.41-5.77,35.45-17.58,53.89-21.62s40.35-10.09,49.86-21c-20.39,9.13-35.31,12.86-48.84,12,7.32-6.82,11.38-15.72,11.26-20.88-7.81,12-10.59,14.44-24.49,22.31s-28,12.51-43.76,13.43c-2.08-20.14,6.49-46.77,31.26-64.13S261,164.91,270.47,155s29.4-16.9,41-19c-13.89.23-20.14.46-29.4,1.39,3.24-11.81,9.95-36.13,11.8-57.2-3.23,9.4-7.48,20.58-8.31,23.24-4.8-2.9-10.77-8.08-18.1-15.34,8.2,10.59,13.76,14.84,13.51,21.77s-7.47,28.07-21.52,40.57-39.82,32.88-69.15,38.43c-9.57-6.94-3.4-35.34,6.17-48.93s36.43-46,33.65-66.06c-6.63,17.67-11.5,25.54-20.06,33-7.72-5.56-15.62-9.8-23.42-14.69,11.38,10.44,15,14.76,13.77,22.28S178.53,147,169,151.93c-7.53-6.81-16.26-15.58-27.53-23.76S120,106.49,120.2,97c.17-10.32.64-13.65,3.39-21.61-5.13,6.1-9.41,18.06-9.87,26.09C107.08,94.37,93,84.64,89.64,65.35c-.53,18,10.34,32.26,18.67,41.67s61.28,53,58.51,111c-17.29-1.24-46.62-1.54-61.75-3.09S71,201.41,37,208.81c16.93,0,36.3,3.35,46.22,10.85-10,3.91-15.43,6.07-21.3,14.47,17.4-8.94,26.59-10.87,48.82-9s41.44,8.33,42.37,28,5.4,51.94,2.62,68.92-2.78,29-65.76,37C143,359.09,262.65,359.3,262.65,359.3Z"/><path class="cls-2" d="M292.24,354.43h-2.59V336.76a4.83,4.83,0,0,0,2.43-4.18v-7.83L275.31,308l-26.94,22.18,0,0a24.21,24.21,0,0,0-9.73,19.4h0a9.71,9.71,0,0,0,9.71,9.71h31.57c-1-3.59-2.51-4.86-4.58-4.86h-2.7V352a7.28,7.28,0,0,0-7.29-7.28h-2.43l19.43-4.86,2.42,19.42H296.5C295.81,356,293.61,354.43,292.24,354.43Z"/><path class="cls-2" d="M305.5,301.89c-.44-.5-1.6-5.62-2.39-6s-6-.49-6.8,0a14.76,14.76,0,0,1-.39-4.75,6,6,0,0,0-4.47,4.75l-10.95,9,14.32,14.32,8.77-8.77H306c4,0,7.28-2,7.28-4.86v-2.43S305.94,302.38,305.5,301.89Z"/><path class="cls-2" d="M35.75,404v20.64H26.87V387.48h7.24l12.52,19.35,12.71-19.35h7.47v37.17H57.93V403.18L46.57,420.65Z"/><path class="cls-2" d="M91.77,387.48l7.94,17.06,7.94-17.06h10.82l-14.12,24.88v12.29H94.59V412.71L80.77,387.48Z"/><path class="cls-2" d="M141.81,412.24v12.41h-9.35V387.48H148.1c10,0,14.53,4.76,14.53,12.62s-3.78,12.14-14.53,12.14Zm0-7.64h4.94c5.29,0,6.41-2.8,6.41-4.77s-1.12-4.7-6.41-4.7h-4.94Z"/><path class="cls-2" d="M186.78,387.48v29h17.59v8.17H177V387.48Z"/><path class="cls-2" d="M243.94,419.42H230.52l-1.83,5.25H219l13.81-33.13-1.41-4.06h9.18l15.19,37.19h-9.94ZM233,412.29h8.41l-4.18-12Z"/><path class="cls-3" d="M277.71,406.24a13.26,13.26,0,0,0,2.47,7.92q2.47,3.19,7.59,3.2a15.71,15.71,0,0,0,5.62-1.06,17.84,17.84,0,0,0,5.09-2.94v9.41a23.2,23.2,0,0,1-5.71,2,28.43,28.43,0,0,1-6.29.74q-9.3,0-14.06-5.36c-3.18-3.56-4.77-7.62-4.77-13.7s1.7-10.37,5.09-14.18,8.23-5.7,14.5-5.7a20.67,20.67,0,0,1,10.65,2.76v9.41a14.82,14.82,0,0,0-10-4q-5.17,0-7.68,3.33A13.92,13.92,0,0,0,277.71,406.24Z"/><path class="cls-2" d="M323.94,395.13V402h15.47l-1.12,7.65H323.94V417h19.65v7.64h-29V387.48h27.82v7.65Z"/></g></g></g></svg>