<?xml version="1.0" standalone="no"?>
<!DOCTYPE svg PUBLIC "-//W3C//DTD SVG 20010904//EN"
 "http://www.w3.org/TR/2001/REC-SVG-20010904/DTD/svg10.dtd">
<svg version="1.0" xmlns="http://www.w3.org/2000/svg"
 width="1274.000000pt" height="1261.000000pt" viewBox="0 0 1274.000000 1261.000000"
 preserveAspectRatio="xMidYMid meet">
<metadata>
Created by potrace 1.16, written by Peter Selinger 2001-2019
</metadata>
<g transform="translate(0.000000,1261.000000) scale(0.100000,-0.100000)"
fill="#000000" stroke="none">
<path d="M5931 12563 c-7 -27 -50 -136 -95 -243 -129 -301 -140 -340 -140
-495 -1 -123 1 -133 27 -187 15 -31 49 -78 75 -103 45 -45 138 -105 161 -105
22 0 111 83 166 154 61 80 107 173 130 261 19 76 20 243 0 320 -22 88 -88 215
-154 298 -54 68 -136 147 -152 147 -3 0 -12 -21 -18 -47z"/>
<path d="M6735 12523 c-86 -100 -140 -191 -178 -301 -28 -78 -31 -99 -31 -207
0 -139 13 -197 76 -318 43 -83 147 -202 218 -252 l42 -29 46 25 c66 34 144
115 176 181 54 111 45 269 -26 448 -16 41 -72 162 -124 270 -51 108 -97 211
-100 228 -4 18 -12 32 -20 32 -7 0 -42 -35 -79 -77z"/>
<path d="M7225 12160 c5 -8 9 -172 10 -364 1 -379 3 -396 60 -511 29 -60 102
-133 165 -165 41 -21 153 -49 196 -50 17 0 29 16 57 73 108 223 114 431 17
632 -43 90 -130 192 -219 258 -101 75 -311 168 -286 127z"/>
<path d="M5520 12084 c-150 -23 -215 -42 -313 -90 -182 -90 -302 -238 -353
-434 -32 -124 -16 -388 25 -409 31 -17 137 -23 201 -11 89 16 147 49 211 118
92 99 142 223 220 541 36 144 52 197 84 274 7 18 -10 20 -75 11z"/>
<path d="M4263 11950 c-156 -184 -221 -353 -209 -545 7 -109 25 -176 78 -278
66 -127 229 -287 277 -272 11 3 48 26 81 51 173 127 204 330 92 609 -11 28
-63 141 -116 251 -53 111 -99 215 -102 232 -4 18 -12 32 -20 32 -7 0 -43 -36
-81 -80z"/>
<path d="M9140 11656 c-257 -105 -415 -261 -482 -476 -19 -62 -23 -96 -22
-200 0 -114 3 -134 33 -220 18 -52 43 -114 57 -137 28 -48 35 -50 129 -32 121
22 231 102 280 204 47 98 58 157 61 365 8 403 9 520 4 519 -3 0 -30 -11 -60
-23z"/>
<path d="M2276 11531 c-19 -30 -38 -170 -39 -276 0 -213 58 -361 197 -500 63
-63 100 -90 166 -122 101 -50 186 -73 277 -76 l66 -2 28 55 c84 165 56 335
-78 481 -70 75 -168 148 -362 269 -84 52 -174 114 -201 138 -27 23 -51 38 -54
33z"/>
<path d="M6174 11498 c14 -52 27 -153 41 -320 28 -335 78 -494 190 -596 70
-64 142 -92 256 -99 l86 -6 26 74 c15 41 31 94 37 119 15 71 12 254 -6 324
-61 239 -264 430 -539 507 -91 25 -99 25 -91 -3z"/>
<path d="M3840 11504 c-256 -37 -380 -92 -515 -228 -129 -130 -187 -271 -188
-461 -1 -97 15 -216 33 -246 7 -11 36 -14 132 -14 114 0 127 2 180 28 105 52
195 177 252 352 14 44 46 163 70 265 24 102 54 210 65 240 29 76 31 72 -29 64z"/>
<path d="M8290 11316 c-275 -112 -444 -291 -496 -525 -24 -106 -15 -260 20
-364 33 -100 72 -176 93 -184 27 -10 152 16 207 43 73 36 139 105 175 183 51
112 62 208 59 526 -1 154 2 295 6 313 9 37 8 37 -64 8z"/>
<path d="M10219 11097 c-138 -115 -225 -234 -275 -382 -24 -70 -28 -95 -28
-200 1 -108 4 -129 31 -208 36 -102 79 -177 147 -256 79 -90 76 -89 161 -47
136 67 203 158 225 304 20 126 -4 249 -110 577 -32 99 -61 199 -65 223 -4 23
-10 42 -14 42 -4 0 -36 -24 -72 -53z"/>
<path d="M5408 11042 c-112 -116 -191 -261 -218 -400 -18 -89 -8 -251 19 -332
45 -131 149 -273 262 -356 l49 -36 48 28 c154 90 227 242 202 421 -15 109 -50
204 -160 433 -54 113 -106 229 -115 258 -10 28 -18 52 -20 52 -1 0 -31 -30
-67 -68z"/>
<path d="M7186 11037 c-41 -70 -93 -188 -111 -252 -26 -96 -31 -248 -11 -339
34 -152 135 -305 265 -400 58 -43 183 -106 209 -106 26 0 102 88 138 159 32
64 42 133 32 217 -15 133 -89 258 -301 511 -75 89 -148 183 -162 208 -15 25
-29 45 -31 45 -2 0 -14 -19 -28 -43z"/>
<path d="M4981 10928 c-99 -12 -241 -59 -321 -105 -36 -21 -99 -72 -140 -113
-128 -128 -190 -280 -190 -468 0 -111 16 -217 36 -237 20 -20 138 -30 207 -17
82 16 144 48 202 107 93 92 145 214 220 510 30 117 63 237 75 266 29 79 39 73
-89 57z"/>
<path d="M9323 10853 c-117 -261 -123 -475 -21 -682 33 -68 59 -103 124 -168
69 -68 100 -90 186 -132 57 -28 117 -54 134 -57 29 -6 36 -1 74 47 113 143
130 294 49 453 -51 101 -110 175 -279 352 -89 93 -176 188 -193 211 -17 24
-34 43 -37 43 -4 0 -21 -30 -37 -67z"/>
<path d="M4025 10763 c-267 -56 -460 -240 -525 -497 -14 -57 -20 -112 -20
-197 l0 -117 48 -17 c74 -26 187 -31 256 -11 79 23 121 52 192 129 74 80 137
201 234 441 39 98 85 200 101 228 16 27 29 51 29 53 0 12 -252 2 -315 -12z"/>
<path d="M1740 10730 c0 -27 33 -140 62 -213 86 -217 256 -374 464 -427 133
-34 322 -22 453 29 l46 19 3 53 c10 167 -69 309 -213 386 -107 57 -230 83
-555 118 -128 14 -179 23 -242 41 -10 3 -18 0 -18 -6z"/>
<path d="M5885 10538 c8 -29 21 -134 30 -233 27 -312 49 -425 104 -533 75
-146 203 -222 377 -222 l55 0 19 45 c33 77 51 156 57 255 21 336 -179 602
-535 714 -121 38 -123 38 -107 -26z"/>
<path d="M8480 10498 c-65 -302 -7 -543 174 -724 120 -120 267 -187 442 -201
l70 -6 26 59 c86 192 57 344 -95 497 -82 83 -146 130 -341 252 -76 47 -165
106 -197 131 -32 24 -60 44 -62 44 -3 0 -10 -24 -17 -52z"/>
<path d="M6835 10438 c-2 -7 -6 -31 -10 -53 -3 -22 -33 -123 -66 -225 -75
-230 -97 -322 -105 -430 -15 -204 61 -343 233 -426 l75 -36 35 33 c92 89 169
218 203 341 25 90 27 246 5 333 -43 165 -159 330 -316 448 -40 30 -48 32 -54
15z"/>
<path d="M3090 10306 c0 -393 174 -815 507 -1231 48 -60 225 -250 393 -420
168 -171 363 -376 434 -455 883 -992 1335 -1991 1336 -2953 l0 -167 -22 4
c-30 7 -360 22 -988 46 -1102 42 -1153 48 -1603 169 -528 143 -690 170 -1049
178 -157 4 -294 1 -375 -6 -144 -14 -420 -58 -443 -72 -9 -5 23 -9 86 -9 388
-1 894 -87 1183 -202 83 -32 252 -118 290 -147 l23 -18 -108 -43 c-225 -89
-359 -168 -467 -273 -68 -67 -153 -174 -144 -183 2 -3 50 17 104 45 498 250
851 313 1483 266 481 -36 808 -111 1062 -242 225 -117 369 -270 441 -469 35
-97 45 -161 57 -353 6 -91 22 -301 35 -466 99 -1211 104 -1505 35 -1912 -51
-294 -105 -425 -233 -560 -255 -268 -790 -445 -1780 -588 -126 -18 -231 -36
-234 -39 -4 -3 970 -6 2163 -6 1193 0 2672 -3 3288 -7 l1118 -6 -7 24 c-34
113 -86 159 -180 159 l-62 0 -7 71 c-14 153 -89 241 -226 264 -42 8 -28 13
249 82 161 41 296 71 299 69 2 -3 23 -154 46 -336 l41 -330 208 0 209 0 -7 28
c-12 48 -49 106 -84 129 -26 17 -48 23 -92 23 l-59 0 0 298 0 299 26 24 c53
49 64 90 64 254 l0 150 -289 289 c-209 209 -293 287 -305 283 -31 -12 -962
-782 -1031 -853 -38 -39 -85 -97 -103 -127 -123 -205 -166 -464 -99 -598 20
-40 21 -49 8 -45 -9 3 -68 14 -132 25 -151 27 -328 73 -426 111 -175 67 -336
192 -428 331 -166 249 -339 874 -464 1679 -31 198 -78 559 -83 639 l-3 43 60
26 c33 14 247 111 475 215 774 353 950 418 1461 538 653 153 1069 305 1354
497 98 66 244 194 227 200 -5 1 -59 -18 -118 -44 -583 -250 -1025 -364 -1411
-364 l-146 0 70 73 c121 128 234 315 281 467 23 76 38 180 26 180 -5 0 -40
-47 -78 -105 -92 -140 -208 -279 -298 -355 -175 -148 -588 -386 -898 -518
-306 -130 -684 -225 -991 -248 l-86 -7 -6 33 c-12 57 -7 281 8 412 52 448 244
898 538 1263 88 109 269 289 381 378 50 40 179 136 286 212 356 254 667 492
910 699 147 125 485 442 512 479 34 47 187 176 297 248 261 172 642 331 1022
424 78 19 144 37 146 39 11 11 -745 -18 -906 -34 -52 -6 -96 -8 -99 -5 -3 3 4
40 16 82 208 765 312 1271 377 1838 9 77 -8 47 -63 -110 -60 -173 -225 -629
-228 -634 -5 -7 -129 82 -229 164 -55 46 -165 143 -245 218 -80 74 -147 133
-149 131 -4 -4 53 -77 209 -264 197 -238 250 -337 250 -467 0 -207 -153 -617
-347 -932 -152 -246 -304 -414 -588 -650 -726 -605 -1432 -990 -2080 -1136
-124 -28 -121 -29 -176 51 -164 239 -101 844 141 1351 73 152 125 233 349 537
592 803 863 1291 941 1696 20 99 28 310 13 310 -5 0 -26 -46 -47 -103 -66
-173 -181 -422 -251 -543 -91 -156 -169 -259 -291 -384 l-102 -104 -153 101
c-157 103 -629 390 -658 400 -9 3 48 -56 126 -131 402 -387 440 -552 208 -911
-227 -353 -639 -809 -876 -971 l-67 -46 -194 178 c-327 303 -501 451 -758 644
-353 266 -638 632 -710 916 -23 89 -26 250 -9 434 13 138 29 222 70 353 16 54
28 104 26 110 -6 18 -114 -154 -168 -269 -85 -180 -169 -467 -169 -579 l0 -37
-152 143 c-385 365 -569 644 -653 991 -13 55 -27 103 -30 106 -3 3 -5 -20 -5
-52z"/>
<path d="M10812 10205 c-195 -35 -380 -180 -482 -377 l-34 -65 23 -31 c60 -85
182 -153 286 -160 155 -10 292 53 574 262 106 79 214 154 239 166 l45 23 -24
18 c-100 75 -254 143 -373 164 -105 18 -155 18 -254 0z"/>
<path d="M877 9843 c104 -471 512 -708 953 -555 l55 19 0 104 c-1 93 -4 110
-28 161 -31 64 -91 128 -154 165 -107 62 -234 93 -513 123 -107 11 -221 27
-253 35 -32 8 -62 15 -67 15 -4 0 -1 -30 7 -67z"/>
<path d="M4772 9889 c-143 -22 -266 -85 -384 -199 l-78 -75 30 -62 c73 -148
184 -223 343 -231 120 -6 210 11 395 75 220 76 351 120 391 130 l34 8 -58 69
c-111 131 -268 235 -406 270 -78 20 -193 26 -267 15z"/>
<path d="M2480 9884 c-25 -3 -112 -14 -195 -25 -82 -12 -194 -24 -247 -28
l-98 -6 36 -70 c105 -206 284 -360 479 -410 90 -24 246 -21 341 5 84 23 241
99 269 130 16 18 17 26 6 73 -36 162 -139 272 -296 313 -54 15 -221 24 -295
18z"/>
<path d="M8605 9569 c-187 -28 -365 -137 -497 -303 l-39 -49 68 -18 c37 -9
138 -43 223 -74 241 -90 339 -116 460 -122 161 -9 247 22 338 121 24 26 56 75
73 109 l29 62 -53 53 c-57 59 -149 128 -213 160 -103 52 -274 79 -389 61z"/>
<path d="M5722 9519 c-172 -29 -359 -155 -486 -328 l-47 -65 84 -17 c47 -9
155 -38 241 -63 227 -68 340 -89 461 -83 133 6 201 32 272 103 48 48 123 176
123 210 0 17 -90 98 -156 140 -147 94 -323 131 -492 103z"/>
<path d="M10655 9515 c-84 -18 -172 -56 -242 -103 -62 -42 -213 -195 -213
-215 0 -26 61 -115 109 -160 127 -118 282 -135 511 -55 47 17 168 70 270 118
102 48 211 96 243 106 l58 18 -58 59 c-70 71 -199 159 -284 193 -125 51 -273
66 -394 39z"/>
<path d="M3005 9205 c-295 -56 -495 -266 -550 -580 -16 -91 -21 -249 -7 -243
4 2 30 15 57 29 28 15 140 59 250 99 364 132 479 208 552 367 24 50 27 70 26
148 -1 50 -7 110 -15 135 -13 44 -15 45 -63 52 -78 10 -173 7 -250 -7z"/>
<path d="M855 9166 c-340 -78 -545 -354 -545 -731 l0 -92 78 37 c42 21 145 61
227 90 83 28 205 78 273 111 102 50 134 71 191 127 87 86 113 141 119 247 4
78 -9 175 -28 205 -13 20 -233 25 -315 6z"/>
<path d="M2030 9174 c-118 -23 -240 -79 -455 -210 -88 -53 -191 -111 -228
-129 l-68 -32 35 -31 c154 -135 347 -212 530 -212 112 0 185 18 296 71 71 35
101 58 180 138 52 53 106 117 120 143 l24 46 -43 55 c-79 103 -175 156 -294
162 -39 2 -83 1 -97 -1z"/>
<path d="M11752 9140 c-185 -50 -347 -185 -440 -368 l-37 -73 66 -63 c105
-100 209 -137 332 -118 136 22 248 82 495 266 94 70 195 140 223 156 l52 28
-42 30 c-62 45 -188 107 -266 132 -102 32 -284 37 -383 10z"/>
<path d="M4725 9121 c-72 -12 -130 -29 -194 -57 -79 -35 -171 -96 -171 -114 0
-30 29 -124 55 -175 28 -59 92 -123 152 -154 119 -60 298 -68 613 -27 107 14
224 27 258 28 l64 3 -37 70 c-141 267 -354 416 -613 430 -42 2 -99 0 -127 -4z"/>
<path d="M6486 8943 c-255 -54 -439 -221 -516 -468 -30 -99 -37 -262 -16 -385
9 -51 19 -96 21 -99 3 -2 18 7 33 21 36 34 94 72 232 153 335 198 458 320 491
488 15 72 2 162 -37 246 l-27 61 -56 -1 c-31 0 -87 -7 -125 -16z"/>
<path d="M9100 8935 c-115 -26 -225 -88 -316 -179 -69 -69 -89 -96 -132 -186
-54 -111 -78 -190 -88 -288 l-7 -60 59 20 c32 11 157 39 278 63 122 24 253 55
291 68 170 59 265 128 317 234 28 57 33 79 36 159 6 136 5 138 -75 159 -91 24
-278 29 -363 10z"/>
<path d="M10805 8919 c-315 -46 -550 -242 -621 -519 -28 -110 -19 -354 16
-411 7 -11 36 -14 127 -14 114 0 121 1 185 33 153 75 224 209 319 599 27 111
58 226 69 255 11 29 20 56 20 61 0 9 -35 7 -115 -4z"/>
<path d="M7965 8870 c-209 -38 -398 -184 -498 -386 l-30 -62 32 -40 c42 -54
140 -118 209 -138 122 -36 278 4 447 114 50 32 155 106 233 165 79 59 166 119
193 132 27 14 49 27 49 29 0 2 -28 22 -62 44 -80 52 -196 106 -273 126 -73 20
-232 28 -300 16z"/>
<path d="M1255 8418 c70 -324 267 -552 533 -614 108 -25 293 -15 402 22 l85
29 -1 95 c-1 125 -26 191 -99 265 -104 103 -249 150 -575 185 -113 12 -233 28
-268 36 -85 19 -85 19 -77 -18z"/>
<path d="M11422 8370 c-116 -31 -206 -84 -298 -175 -78 -77 -155 -190 -169
-246 -5 -22 3 -34 63 -91 108 -101 214 -133 352 -104 133 28 247 93 502 286
71 54 153 111 184 127 l57 31 -41 30 c-63 45 -189 107 -267 132 -102 32 -284
37 -383 10z"/>
<path d="M3070 8299 c-114 -19 -276 -117 -470 -283 -111 -96 -216 -178 -247
-195 -13 -6 -23 -15 -23 -19 0 -12 118 -77 192 -106 202 -79 414 -73 595 16
127 62 275 229 332 375 l20 52 -56 51 c-70 64 -133 96 -214 110 -35 5 -66 9
-69 9 -3 -1 -30 -5 -60 -10z"/>
<path d="M3982 8214 c-308 -91 -494 -317 -509 -620 -4 -58 -1 -129 6 -169 15
-85 69 -255 81 -255 5 0 18 13 29 29 12 16 90 87 174 157 331 278 428 409 431
584 0 49 -6 93 -17 127 -19 54 -91 173 -104 172 -5 0 -45 -11 -91 -25z"/>
<path d="M356 8199 c12 -67 71 -226 108 -293 46 -82 147 -191 224 -243 31 -21
93 -50 137 -66 144 -52 353 -47 503 12 58 23 67 51 52 159 -13 93 -46 165
-102 221 -108 107 -251 152 -593 187 -154 15 -281 35 -317 49 -16 6 -17 3 -12
-26z"/>
<path d="M8265 8161 c-248 -101 -418 -284 -471 -507 -25 -108 -15 -274 23
-386 16 -47 42 -107 57 -133 l28 -47 51 7 c196 24 316 128 369 320 21 75 22
100 23 427 0 192 -2 348 -5 348 -3 0 -36 -13 -75 -29z"/>
<path d="M11839 7791 c-62 -24 -130 -72 -172 -122 -40 -46 -40 -52 13 -144 76
-130 181 -231 305 -291 101 -48 173 -64 296 -64 130 0 239 28 371 97 87 44 88
46 88 82 0 30 -5 40 -31 55 -17 10 -106 75 -199 145 -275 207 -386 261 -540
260 -58 0 -100 -6 -131 -18z"/>
<path d="M4412 7715 c-179 -90 -250 -261 -208 -502 9 -50 50 -196 91 -323 42
-127 78 -251 82 -275 3 -25 8 -45 11 -45 10 0 77 54 136 110 180 170 268 400
236 615 -14 97 -57 211 -106 285 -41 62 -143 170 -160 170 -6 0 -43 -16 -82
-35z"/>
<path d="M10770 7707 c-62 -18 -128 -52 -174 -91 l-39 -33 12 -49 c6 -27 33
-92 59 -144 38 -79 61 -110 132 -181 91 -91 172 -141 285 -175 89 -27 293 -25
398 4 60 17 177 61 205 77 1 1 -100 106 -225 232 -296 300 -379 356 -548 368
-34 3 -80 -1 -105 -8z"/>
<path d="M10080 7487 c-51 -112 -64 -180 -64 -317 0 -108 4 -136 27 -206 72
-218 261 -388 521 -470 31 -10 58 -15 61 -13 2 3 0 21 -5 40 -6 19 -15 151
-20 294 -11 293 -29 408 -80 512 -70 141 -206 223 -372 223 -39 0 -40 -1 -68
-63z"/>
<path d="M920 7424 c-19 -3 -98 -14 -175 -25 -77 -11 -181 -22 -232 -26 l-92
-6 21 -41 c44 -88 130 -206 196 -267 81 -76 154 -121 254 -157 64 -23 88 -26
203 -27 117 0 139 3 218 29 113 37 241 112 245 144 5 37 -35 155 -70 208 -43
64 -116 117 -197 144 -53 18 -93 23 -201 25 -74 2 -151 1 -170 -1z"/>
<path d="M2230 7415 c-58 -8 -156 -21 -219 -29 -63 -9 -137 -16 -164 -16 -57
0 -58 3 5 -107 213 -374 600 -495 968 -302 41 22 85 48 98 58 21 18 21 23 11
73 -27 128 -113 244 -215 289 -109 49 -275 60 -484 34z"/>
<path d="M3070 7076 c0 -39 40 -160 79 -241 102 -212 266 -347 473 -389 135
-28 250 -19 402 31 l79 26 -6 91 c-11 197 -97 308 -294 379 -95 34 -197 52
-433 77 -108 11 -219 26 -248 34 -51 13 -52 12 -52 -8z"/>
<path d="M11873 7016 c-24 -8 -65 -28 -92 -45 -53 -34 -131 -113 -131 -132 0
-7 16 -42 36 -78 204 -371 612 -484 992 -275 61 35 62 35 62 79 0 41 -3 46
-47 76 -26 18 -110 80 -187 139 -246 185 -356 239 -506 246 -56 3 -100 -1
-127 -10z"/>
<path d="M9352 6898 c-92 -220 -79 -463 33 -648 62 -102 179 -206 305 -270 53
-27 211 -82 218 -75 2 2 -1 32 -6 67 -6 35 -14 135 -17 223 -3 88 -11 205 -16
260 -31 311 -146 469 -369 504 -117 19 -114 20 -148 -61z"/>
<path d="M10990 6870 c-45 -8 -143 -42 -168 -59 -19 -12 0 -165 33 -269 54
-170 175 -316 326 -390 111 -55 199 -75 334 -76 97 -1 265 19 265 31 0 3 -15
22 -32 43 -18 21 -73 107 -122 191 -158 273 -235 378 -332 450 -90 69 -203 98
-304 79z"/>
<path d="M2 6639 c6 -183 20 -247 86 -374 49 -94 163 -208 257 -257 114 -59
194 -79 337 -85 l127 -6 21 72 c30 97 25 233 -9 301 -67 131 -187 221 -441
332 -63 27 -171 77 -240 111 -69 34 -129 64 -134 66 -5 2 -6 -69 -4 -160z"/>
<path d="M1326 6660 c-160 -173 -230 -340 -230 -545 1 -93 5 -122 28 -190 47
-139 124 -248 238 -342 66 -54 70 -55 95 -42 91 48 187 149 215 226 8 24 13
80 12 148 -1 143 -22 210 -159 495 -57 118 -109 233 -116 255 -7 22 -16 44
-20 48 -3 4 -31 -20 -63 -53z"/>
<path d="M2311 6645 c-113 -61 -168 -103 -246 -187 -72 -78 -134 -192 -160
-293 -21 -83 -19 -223 5 -322 19 -81 80 -216 116 -260 19 -22 20 -23 87 -8
134 28 234 103 283 210 59 127 67 277 33 606 -11 112 -18 225 -15 252 3 33 1
47 -7 47 -7 0 -50 -21 -96 -45z"/>
<path d="M2757 6498 c7 -29 20 -138 29 -243 18 -234 29 -309 55 -405 41 -151
115 -250 229 -304 54 -25 80 -31 156 -34 l91 -4 25 63 c38 94 52 172 52 284 0
116 -14 182 -59 280 -84 184 -249 319 -473 389 -121 38 -122 38 -105 -26z"/>
<path d="M3690 6384 c0 -2 7 -43 15 -91 8 -49 19 -155 25 -238 26 -350 68
-495 179 -606 70 -70 140 -98 262 -106 l86 -6 25 64 c42 106 53 166 52 294 -1
102 -5 132 -28 202 -61 186 -207 339 -405 423 -67 29 -211 73 -211 64z"/>
<path d="M10282 6380 c-23 -5 -70 -21 -103 -36 l-62 -28 6 -78 c15 -185 80
-331 202 -453 138 -138 282 -196 495 -197 100 -1 260 17 260 29 0 3 -20 32
-44 66 -24 34 -83 129 -130 210 -116 200 -174 282 -256 361 -112 109 -241 153
-368 126z"/>
<path d="M11445 5921 c-83 -30 -175 -94 -175 -123 0 -9 13 -54 29 -98 153
-417 572 -578 1007 -385 l52 23 -237 239 c-245 249 -308 300 -419 340 -79 29
-185 30 -257 4z"/>
<path d="M9996 5873 c-3 -4 -6 -22 -6 -42 -1 -39 -4 -53 -73 -321 -84 -323
-84 -490 -1 -621 46 -73 168 -158 253 -175 26 -5 33 0 85 67 265 338 207 751
-143 1027 -62 50 -106 74 -115 65z"/>
<path d="M8137 5823 c-19 -31 -57 -185 -66 -264 -27 -238 39 -430 201 -584 84
-81 209 -150 324 -179 91 -23 99 -22 132 27 118 170 100 358 -51 535 -64 74
-138 140 -307 272 -69 53 -148 121 -177 149 -28 29 -53 48 -56 44z"/>
<path d="M535 5813 c-16 -2 -94 -13 -172 -23 -79 -11 -177 -20 -218 -20 l-75
0 31 -62 c64 -128 152 -238 244 -306 173 -129 374 -169 580 -117 63 16 222 91
265 124 24 19 24 21 13 76 -36 171 -141 281 -304 320 -60 14 -282 19 -364 8z"/>
<path d="M9000 5646 c0 -2 7 -31 15 -63 8 -32 24 -148 35 -258 30 -284 52
-383 112 -496 41 -78 101 -136 178 -173 55 -26 79 -31 162 -34 l96 -4 27 82
c65 207 57 372 -27 550 -56 118 -174 235 -304 302 -103 54 -294 114 -294 94z"/>
<path d="M7540 5235 c-72 -216 -64 -425 22 -604 77 -161 243 -295 433 -349
131 -38 127 -38 165 25 48 79 69 148 70 226 1 174 -105 319 -400 547 -74 57
-162 130 -196 162 -33 32 -63 58 -67 58 -3 0 -15 -29 -27 -65z"/>
<path d="M1169 5260 c-74 -9 -140 -43 -211 -109 -82 -76 -153 -187 -263 -415
-52 -109 -109 -219 -126 -244 -21 -31 -27 -47 -19 -52 22 -14 175 -20 256 -10
118 13 198 36 288 83 148 76 271 229 320 397 21 71 39 225 31 271 -6 35 -9 38
-73 57 -84 26 -132 31 -203 22z"/>
<path d="M1785 5216 c-192 -47 -296 -195 -334 -476 -5 -41 -15 -154 -21 -250
-7 -96 -18 -204 -25 -240 -7 -36 -11 -67 -9 -69 6 -7 109 22 177 50 111 45
177 89 267 179 136 135 190 267 190 465 0 108 -23 224 -60 308 l-21 47 -57 -1
c-31 0 -79 -6 -107 -13z"/>
<path d="M11458 5205 c-11 -12 -127 -26 -323 -41 -249 -18 -371 -40 -470 -87
-159 -76 -235 -194 -235 -368 l0 -67 63 -25 c105 -41 165 -52 292 -52 136 1
199 16 307 72 182 95 329 306 382 546 6 24 -2 35 -16 22z"/>
<path d="M2644 4572 c-32 -21 -79 -60 -102 -86 -64 -70 -85 -124 -90 -234 -7
-156 17 -238 166 -563 45 -96 87 -196 94 -222 7 -26 15 -47 18 -47 14 0 139
138 179 198 181 269 173 588 -23 834 -43 54 -158 158 -175 158 -4 0 -34 -17
-67 -38z"/>
<path d="M10399 4478 c-37 -13 -85 -36 -108 -51 -40 -26 -41 -30 -35 -65 32
-189 115 -350 236 -457 62 -54 187 -118 278 -142 102 -26 279 -22 404 11 54
14 101 28 104 30 2 3 -18 30 -45 60 -28 30 -101 125 -164 212 -216 300 -358
413 -527 421 -61 3 -90 -1 -143 -19z"/>
<path d="M2003 4411 c-102 -38 -177 -105 -260 -233 -42 -64 -79 -138 -196
-391 -26 -54 -60 -118 -77 -144 -17 -25 -28 -48 -25 -52 4 -3 73 -6 153 -6
171 1 243 16 367 75 132 64 228 158 297 290 51 101 72 193 73 324 l0 109 -55
19 c-82 29 -212 33 -277 9z"/>
<path d="M9840 4167 l-55 -12 -13 -70 c-21 -110 -11 -271 24 -375 81 -243 294
-414 574 -459 63 -11 170 -15 170 -7 0 2 -11 28 -24 57 -13 30 -40 117 -61
194 -92 345 -143 463 -245 566 -49 50 -79 71 -123 87 -72 27 -175 35 -247 19z"/>
<path d="M9065 3927 c-54 -14 -126 -47 -165 -77 l-24 -18 22 -98 c34 -150 88
-250 192 -355 70 -71 100 -93 170 -127 118 -55 174 -67 320 -66 94 0 148 6
215 22 50 13 96 26 103 30 9 6 0 22 -33 58 -25 27 -95 117 -154 199 -185 254
-282 351 -406 407 -73 33 -170 43 -240 25z"/>
<path d="M8485 3708 c-104 -141 -155 -285 -155 -441 0 -245 124 -455 361 -613
39 -25 72 -44 74 -42 3 2 9 38 15 79 6 41 26 140 45 222 99 418 86 606 -49
742 -46 45 -147 99 -208 110 -36 7 -37 6 -83 -57z"/>
<path d="M10185 2546 c-41 -19 -94 -76 -109 -119 -9 -27 -52 -67 -196 -186
-102 -83 -186 -155 -188 -159 -1 -4 110 -120 248 -257 l250 -250 152 152 153
151 88 5 c67 4 100 11 142 32 75 36 99 72 103 157 3 38 3 68 1 68 -121 15
-264 43 -271 52 -4 7 -20 50 -34 96 -15 46 -33 90 -41 98 -11 10 -43 14 -128
14 -129 0 -125 -4 -125 103 0 31 -3 57 -7 57 -5 -1 -21 -7 -38 -14z"/>
</g>
</svg>
