<?xml version="1.0" encoding="utf-8"?>
<!-- Generator: Adobe Illustrator 23.0.0, SVG Export Plug-In . SVG Version: 6.00 Build 0)  -->
<svg version="1.1" id="Layer_1" xmlns="http://www.w3.org/2000/svg" xmlns:xlink="http://www.w3.org/1999/xlink" x="0px" y="0px"
	 viewBox="0 0 20.7 22.5" style="enable-background:new 0 0 20.7 22.5;" xml:space="preserve">
<style type="text/css">
	.st0{fill:none;stroke:#7F7B8B;stroke-linejoin:round;stroke-miterlimit:10;}
</style>
<image style="overflow:visible;" width="144" height="132" xlink:href="E15A4524.jpg"  transform="matrix(1 0 0 1 313.6421 -50.0148)">
</image>
<image style="overflow:visible;" width="368" height="352" xlink:href="E15A4525.jpg"  transform="matrix(0.3105 0 0 0.3105 -137.9053 5.7431)">
</image>
<g>
	<g>
		<polygon class="st0" points="10.4,11 10.4,21.9 15.1,19.2 15.1,13.7 20.1,11 20.1,5.6 16.7,7.5 		"/>
		<polygon class="st0" points="16.7,7.5 20.1,5.6 15.2,3.1 5.5,8.4 5.5,19 10.3,21.9 10.3,11 10.4,11 10.4,11 		"/>
		<polygon class="st0" points="5.5,8.3 15.2,3.1 15.2,3.1 15.2,3.1 10.3,0.6 0.6,5.7 0.6,16.2 5.5,19 5.5,19 5.5,19 		"/>
	</g>
</g>
</svg>
