<?xml version="1.0" encoding="utf-8"?>
<!-- Generator: Adobe Illustrator 27.0.0, SVG Export Plug-In . SVG Version: 6.00 Build 0)  -->
<svg version="1.1" id="Layer_1" xmlns="http://www.w3.org/2000/svg" xmlns:xlink="http://www.w3.org/1999/xlink" x="0px" y="0px"
	 viewBox="0 0 5000 5000" style="enable-background:new 0 0 5000 5000;" xml:space="preserve">
<style type="text/css">
	.st0{fill:#B32C34;}
	.st1{fill:#FFFFFF;}
	.st2{fill-rule:evenodd;clip-rule:evenodd;fill:#FFFFFF;}
</style>
<path class="st0" d="M4576.73,3567.28l-1513.1,1046.99c-335.55,232.18-779.71,232.7-1115.79,1.29L425.14,3567.12
	C158.98,3383.85,0,3081.38,0,2758.22V0h5000v2759.67C5000,3082.02,4841.81,3383.85,4576.73,3567.28z"/>
<g>
	<g>
		<path class="st1" d="M2455.99,2545.96c-34.85,42.52-67.87,77.07-84.29,96.64c-20.73-22.54-41.71-46.68-46.21-56.36
			c-8.7-18.7,11.51-43.01,1.45-58.7c-10.04-15.68-104.24-139.26-120.12-159.71c-15.9-20.44-22.41-7.42-32.47-1.04
			c-10.08,6.38-21.59,16.84-12.69,33.45c8.91,16.62,144.38,191.49,165.84,219.81c8.98,11.88,21.58,24.66,34.25,36.38
			c-8.62,18.32,5.29,39.53,30.54,26.56c5.39,4.46,9.96,8.15,13.19,10.79c14.62,11.91,15.61,16.17,13.75,31.79
			c-0.6,5.07,1.73,6.34,3.91,3.24c1.36-1.93,1.77-7.71,1.77-7.71s4.09-19.47-9.46-32.68c-2.18-2.13-6.7-6.7-12.57-12.77
			c11.7-10.2,53.09-46.71,92.39-86.66c-11.7-12.02-23.1-24.26-33.33-36.08C2459.95,2550.61,2457.97,2548.29,2455.99,2545.96z
			 M2315.99,2548.72l-0.25,2.67c-0.05,0.44-0.06,0.89-0.14,1.33l-0.24,1.32c-0.17,0.88-0.29,1.76-0.51,2.62l-0.73,2.57
			c-0.21,0.86-0.55,1.69-0.88,2.51l-0.97,2.47l-0.21-0.09l0.76-2.52c0.26-0.84,0.52-1.67,0.66-2.54l0.51-2.57
			c0.16-0.86,0.21-1.73,0.32-2.6l0.14-1.3c0.05-0.43,0.03-0.87,0.05-1.3l0.06-2.6l-0.13-2.6c-0.01-0.87-0.16-1.72-0.26-2.58
			c-0.1-0.86-0.2-1.72-0.38-2.56c-0.18-0.85-0.3-1.7-0.52-2.54l-0.65-2.51l-0.77-2.47l-0.88-2.43c-0.34-0.79-0.64-1.6-1.01-2.38
			c-0.36-0.78-0.72-1.56-1.12-2.31c-0.38-0.73-0.8-1.48-1.2-2.14c-4.5-5.76-8.93-11.58-13.4-17.37l-13.31-17.51
			c-4.44-5.84-8.8-11.73-13.21-17.59c-4.41-5.86-8.77-11.76-13.12-17.66l-6.53-8.85l-6.47-8.9l-6.45-8.91l-6.4-8.95l-6.36-8.98
			l-6.31-9.01c-4.19-6.02-8.35-12.07-12.42-18.17l0.18-0.14c4.68,5.66,9.27,11.38,13.84,17.12l6.82,8.64l6.77,8.67l6.73,8.7
			l6.68,8.74l6.66,8.75l6.6,8.8c4.4,5.86,8.8,11.73,13.14,17.64c4.35,5.9,8.74,11.78,13.05,17.71l12.95,17.79
			c4.27,5.96,8.59,11.89,12.83,17.88l0.06,0.08l0.01,0.02c0.48,0.85,0.87,1.64,1.26,2.48c0.39,0.82,0.73,1.66,1.07,2.49
			c0.34,0.84,0.63,1.69,0.94,2.54l0.81,2.58l0.67,2.61l0.53,2.64c0.18,0.88,0.25,1.78,0.39,2.67c0.14,0.89,0.19,1.78,0.25,2.68
			c0.05,0.9,0.15,1.79,0.11,2.68L2315.99,2548.72z"/>
		<path class="st1" d="M2544.11,2535.3c47.82-57.45,91.09-122.7,91.09-122.7c36.51-48.48-22.94-92.2-50.03-56.87
			c-26.8,34.94-40.76,69-81.01,126.77c3.73,5.29,7.67,10.78,11.88,16.5C2525.3,2511.56,2534.74,2523.7,2544.11,2535.3z
			 M2609.89,2371.76c6.34,0.6,10.95,6.24,10.34,12.54c-0.61,6.34-6.22,10.97-12.56,10.36c-6.32-0.61-10.97-6.23-10.34-12.56
			C2597.96,2375.8,2603.57,2371.16,2609.89,2371.76z"/>
		<path class="st1" d="M2825.68,2366.79c-10.06-6.38-16.56-19.41-32.47,1.04c-15.89,20.45-110.09,144.03-120.13,159.71
			c-10.05,15.69,10.15,40,1.45,58.7c-4.51,9.68-25.49,33.82-46.21,56.36c-21.66-25.82-72.23-77.71-117.75-139.58
			c-51.97-70.62-65.88-108.4-95.71-147.3c-27.1-35.33-86.55,8.39-50.03,56.87c0,0,50.23,75.74,102.25,135.86
			c45.85,53,114.44,113.56,130.08,127.19c-5.87,6.07-10.39,10.64-12.57,12.77c-13.55,13.21-9.46,32.68-9.46,32.68
			s0.41,5.78,1.77,7.71c2.18,3.1,4.51,1.83,3.91-3.24c-1.86-15.62-0.87-19.88,13.75-31.79c3.23-2.64,7.8-6.33,13.19-10.79
			c25.25,12.97,39.16-8.24,30.54-26.56c12.67-11.72,25.27-24.5,34.25-36.38c21.45-28.32,156.93-203.18,165.84-219.81
			C2847.27,2383.63,2835.76,2373.17,2825.68,2366.79z M2392.34,2394.67c-6.34,0.61-11.95-4.02-12.56-10.36
			c-0.61-6.31,4.01-11.94,10.34-12.54c6.33-0.6,11.94,4.03,12.56,10.34C2403.31,2388.43,2398.67,2394.06,2392.34,2394.67z
			 M2783.93,2400.45l-6.31,9.01l-6.36,8.98l-6.4,8.95l-6.45,8.91l-6.47,8.9l-6.53,8.85c-4.35,5.9-8.71,11.8-13.12,17.66
			c-4.41,5.86-8.77,11.76-13.21,17.59l-13.31,17.51c-4.47,5.79-8.9,11.61-13.4,17.37c-0.4,0.65-0.83,1.4-1.2,2.14
			c-0.4,0.76-0.76,1.53-1.12,2.31c-0.36,0.78-0.67,1.58-1.01,2.38l-0.88,2.43l-0.77,2.47l-0.65,2.51c-0.22,0.84-0.34,1.69-0.52,2.54
			c-0.19,0.85-0.28,1.7-0.38,2.56c-0.1,0.86-0.24,1.72-0.26,2.58l-0.13,2.6l0.06,2.6c0.02,0.43,0,0.87,0.05,1.3l0.15,1.3
			c0.11,0.86,0.16,1.74,0.32,2.6l0.51,2.57c0.14,0.87,0.4,1.7,0.66,2.54l0.76,2.52l-0.21,0.09l-0.97-2.47
			c-0.33-0.82-0.66-1.65-0.88-2.51l-0.73-2.57c-0.22-0.86-0.33-1.75-0.51-2.62l-0.24-1.32c-0.08-0.44-0.09-0.89-0.14-1.33
			l-0.25-2.67l-0.03-2.68c-0.04-0.9,0.06-1.79,0.11-2.69c0.06-0.9,0.11-1.79,0.25-2.68c0.13-0.89,0.21-1.79,0.39-2.67l0.53-2.64
			l0.67-2.61l0.81-2.58c0.32-0.84,0.6-1.7,0.94-2.54c0.34-0.84,0.68-1.67,1.07-2.49c0.38-0.83,0.78-1.62,1.26-2.48l0.01-0.02
			l0.06-0.08c4.24-5.99,8.55-11.92,12.83-17.88l12.95-17.79c4.31-5.93,8.7-11.8,13.05-17.71c4.34-5.91,8.74-11.78,13.14-17.64
			l6.6-8.8l6.66-8.75l6.68-8.74l6.73-8.7l6.77-8.67l6.82-8.64c4.56-5.74,9.16-11.47,13.84-17.12l0.18,0.14
			C2792.28,2388.38,2788.12,2394.43,2783.93,2400.45z"/>
	</g>
	<path class="st1" d="M2893.57,451.33c32.46-27.74,123.59,20.78,124.69,21.36c-111.64-102.72-238.7-35.61-238.7-35.61
		c36.21-74.23,127.07-61.17,127.07-61.17c-112.82-39.19-203.09,46.32-203.09,46.32c-4.75-45.12,54.04-72.44,54.04-72.44
		c-73.64,5.94-122.33,78.98-122.33,78.98c-45.73-81.36-90.86-82.54-90.86-82.54c39.2,43.95,43.36,106.89,43.36,106.89
		c-56.41-95.01-125.9-71.6-125.9-71.6c59.41,22.01,82.26,99.52,82.68,100.97c-71.25-115.33-154.24-100.34-154.24-100.34
		c39.49,10.09,71.86,53.6,71.86,53.6c-73.48-61.46-147.42-40.09-147.42-40.09c91.91,23.86,140.42,118.91,141.17,120.39
		c-153.8-179.9-268.99-90.1-268.99-90.1c104.31-2.21,143.7,63.12,144.29,64.12c-135.83-93.07-205.31,0.45-205.31,0.45
		c92.64-16.47,125.16,40.09,125.16,40.09s-144.35-60.91-229.85,35.29c-85.52,96.2-5.31,272.02-5.31,272.02
		c20.33-107.82,143.54-180.57,145.47-181.71c-258.88,228.04-9.85,401.31,20.21,472.09c42.76,100.65,5.35,198.64,5.35,198.64
		c81.3,17.37,145.07,49.66,146.07,50.16c-7.71-17.83-40.96-65.31-40.96-65.31l122.92,106.89l-108.67-143.71l305.82,285.04
		c4.75-122.93,32.66-181.72,32.66-181.72c-130.05-28.5-232.49-121.29-232.49-121.29c14.7-138.51-14.25-220.16-14.25-220.16
		c-139.55-12.76-175.92-120.33-175.92-154.39c0-34.08,14.25-85.07,70.81-85.07s60.8,40.09,60.8,40.09s-25.83-20.64-59.46-20.64
		c-23.45,0-41.44,14.99-47.65,28.65c-8.39,18.43,0,35.63,0,35.63c-0.12-23.34,21.67-44.43,45.77-44.43
		c29.84,0,43.64,24.61,43.64,43.98s-11.46,30.07-19.7,33.62c-8.24,3.57-24.26,8.69-12.46,39.2c4.72,12.2,10.97,18.03,16.77,20.63
		c7.79,3.49,16.92-0.64,20.4-8.44l7.59-22.37c5.72-12.88,26.3-13.82,32.84-1.33c61.92,118.28,45.99,294.98,45.99,294.98
		c54.92,42.34,111.2,71.2,164.4,90.8c-7.21-31.73,1.72-64.08,1.72-64.08c0,6.09,0.72,12.03,1.98,17.78
		c7.39,33.88,34.77,60.02,68.47,68.12c5.68,1.37,11.3,2.63,16.83,3.81c-10.93-16.99-11.71-35.95-11.71-35.95
		c2.75,5.41,6.22,10.34,10.05,14.79c15.28,17.71,37.37,28.08,60.58,30.86c5.82,0.69,11.51,1.3,17.02,1.8
		c-12.73-18.69-28.29-47.56-33.58-82.79c0,0,30.04,56.89,69.73,85.01c46.53,1.55,75.42-2.76,75.42-2.76
		c-48.99-102.44-40.37-180.52-40.37-180.52c-8.62,5.63-27.62,7.71-27.62,7.71c17.82-8.61,43.05-31.17,33.25-56.41
		c-9.79-25.24-45.13-4.45-45.13-4.45c22.57-48.11,65.92-65.92,65.92-65.92l-32.66-42.75l67.1-39.2
		c-57.6-57-84.91-130.05-84.91-130.05l26.12-11.28l16.63,52.85c23.45-138.34-30.07-215.34-31.44-217.3
		c63.51,67.7,70.64,159.55,70.64,159.55c16.03-112.38-26.72-178.59-26.72-178.59c32.66,11.87,56.41,105.99,56.41,105.99
		c40.08-172.8-40.98-206.65-40.98-206.65c91.75-0.88,99.17,157.07,99.17,157.07C3065.2,478.05,2893.57,451.33,2893.57,451.33z
		 M2850.3,977.09l-74.15,37.19c0,0-20.72,0.45-24.05-26.95c0,0-29.55,25.46-23.31,63.47c0,0,7.72-19,19.3-25.83l14.25,10.69
		c0,0-41.28,32.66-56.12,63.83c0,0-5.64,25.24,0.3,52.86c0,0-25.54-24.65-20.2-80.46c0,0-103.91-5.34-166.86-92.64
		c0,0,5.05,49.28,37.12,94.26c0,0-85.22-71.1-103.62-218.38c0,0,30.87-58.79,89.66-87.9c0,0-45.13-45.72-76.61-154.98
		c0,0-20.34-11.29-77.79-9.5c0,0,155.2-46.97,308.2,23.16c85.52,39.19,98.87,181.71,98.87,181.71l-98.2-18.48
		c0,0-71.02,26.95-105.32,72.81c0.86-0.41,56.38-27.2,90.85-31.17c0,0-30.14,21.38-38.45,36.82c0,0,23.16,19.3,103.33,12.17
		c0,0-1.79,15.15,4.15,29.99c0,0,13.96-35.62,29.7-45.72C2781.34,864.04,2816.23,946.81,2850.3,977.09z"/>
	<path class="st1" d="M1728.25,1449c0.98-4.98,1.9-9.96,3.02-14.95c3.37-15.56,7.4-31.03,11.77-46.45
		c8.89-30.8,19.85-61.09,32.81-90.64c12.69-29.74,28.65-57.93,46.32-85.24l13.93-20.08c4.79-6.61,10.16-12.73,15.24-19.16l7.75-9.57
		c2.68-3.1,5.62-5.95,8.42-8.95l17.11-17.86l-19.72,15.03c-3.27,2.55-6.68,4.97-9.85,7.65l-9.25,8.34
		c-6.1,5.64-12.55,11.03-18.43,16.95l-17.33,18.15c-22.31,24.91-43.38,51.48-61.3,80.09c-18.2,28.45-34.58,58.2-48.96,89
		c-7.12,15.43-13.92,31.06-20.1,47.01c-3.13,7.96-6.12,16-8.95,24.16c-0.79,2.29-1.56,4.54-2.32,6.79c0.45-2.51,0.91-5.03,1.35-7.55
		c2.46-12.5,5.28-25.01,8.55-37.46c6.49-24.91,14.66-49.56,24.52-73.61c4.62-12.2,10.38-23.86,15.78-35.8
		c6.03-11.55,11.64-23.48,18.48-34.67c12.75-23.05,28.16-44.51,44.25-65.73c-19.35,18.14-38.51,37.04-55.32,58.05
		c-8.87,10.18-16.58,21.21-24.78,32.01c-7.55,11.17-15.54,22.22-22.43,33.91c-14.4,23.06-27.27,47.2-38.57,72.21
		c-5.67,12.5-10.94,25.23-15.86,38.19c-1.74,4.84-3.5,9.69-5.18,14.59c1.58-7.77,3.26-15.56,5.25-23.31
		c5.05-19.93,11-39.87,18.28-59.4c7.27-19.52,15.25-38.98,24.66-57.82c9.08-19.06,19.7-37.37,30.78-55.61
		c-14.61,15.46-29.06,31.38-42.19,48.44c-13.46,16.85-25.72,34.71-37.42,53.06c-11.72,18.36-22.25,37.55-32.03,57.3
		c-4.91,9.87-9.44,19.97-13.81,30.23c-2.11,5.18-4.27,10.32-6.22,15.66l-465.45,35.45l646.47,12.2l20.4,0.38l4.02-19.62
		c32.21-157.26,117.64-306.23,241.86-416.57C1883.95,1157.03,1781.91,1292.85,1728.25,1449z"/>
	<path class="st1" d="M3271.77,1449c-0.98-4.98-1.9-9.96-3.02-14.95c-3.37-15.56-7.4-31.03-11.77-46.45
		c-8.89-30.8-19.85-61.09-32.81-90.64c-12.69-29.74-28.65-57.93-46.32-85.24l-13.93-20.08c-4.79-6.61-10.16-12.73-15.24-19.16
		l-7.75-9.57c-2.68-3.1-5.62-5.95-8.42-8.95l-17.11-17.86l19.72,15.03c3.27,2.55,6.68,4.97,9.85,7.65l9.25,8.34
		c6.1,5.64,12.55,11.03,18.43,16.95l17.33,18.15c22.31,24.91,43.38,51.48,61.3,80.09c18.2,28.45,34.58,58.2,48.96,89
		c7.12,15.43,13.92,31.06,20.1,47.01c3.13,7.96,6.12,16,8.95,24.16c0.79,2.29,1.56,4.54,2.32,6.79c-0.45-2.51-0.91-5.03-1.35-7.55
		c-2.46-12.5-5.28-25.01-8.55-37.46c-6.49-24.91-14.66-49.56-24.52-73.61c-4.62-12.2-10.38-23.86-15.78-35.8
		c-6.03-11.55-11.64-23.48-18.48-34.67c-12.75-23.05-28.16-44.51-44.25-65.73c19.35,18.14,38.51,37.04,55.32,58.05
		c8.87,10.18,16.58,21.21,24.78,32.01c7.55,11.17,15.54,22.22,22.43,33.91c14.4,23.06,27.27,47.2,38.57,72.21
		c5.67,12.5,10.94,25.23,15.86,38.19c1.74,4.84,3.5,9.69,5.18,14.59c-1.58-7.77-3.26-15.56-5.25-23.31
		c-5.05-19.93-11-39.87-18.28-59.4c-7.27-19.52-15.25-38.98-24.66-57.82c-9.08-19.06-19.7-37.37-30.78-55.61
		c14.61,15.46,29.06,31.38,42.19,48.44c13.46,16.85,25.72,34.71,37.42,53.06c11.72,18.36,22.25,37.55,32.03,57.3
		c4.91,9.87,9.44,19.97,13.81,30.23c2.11,5.18,4.27,10.32,6.22,15.66l465.45,35.45l-646.47,12.2l-20.4,0.38l-4.02-19.62
		c-32.21-157.26-117.64-306.23-241.86-416.57C3116.07,1157.03,3218.11,1292.85,3271.77,1449z"/>
	<g>
		<g>
			<path class="st1" d="M1532.46,2343c78.99,467.21,491.03,816.82,967.55,816.82c476.52,0,888.56-349.61,967.56-816.82h-341.63
				c-35.05,133.45-113.38,254-221.77,340.81c-115.77,92.72-255.52,141.72-404.15,141.72c-148.63,0-288.38-49.01-404.15-141.72
				c-108.39-86.81-186.73-207.37-221.77-340.81H1532.46z M2705.76,3034.01c15.71-3.81,27.21-12.24,34.49-25.29
				c7.29-13.05,9.01-27.47,5.19-43.26c-3.83-15.79-11.97-27.82-24.42-36.08c-12.45-8.26-26.61-10.47-42.48-6.63
				c-15.71,3.81-27.21,12.24-34.49,25.29c-7.29,13.05-9.01,27.47-5.18,43.26c3.83,15.79,11.97,27.82,24.42,36.08
				C2675.73,3035.65,2689.89,3037.86,2705.76,3034.01z M3011.54,2800.72l38.21-34.05c10.81-9.96,11.99-19.99,3.55-30.09
				c-8.3-8.7-18.01-8.43-29.13,0.82l-38.49,34.29L3011.54,2800.72z M3263.17,2554.32c0,15.55-12.61,28.16-28.16,28.16
				c-15.55,0-28.16-12.61-28.16-28.16c0-15.55,12.61-28.16,28.16-28.16C3250.56,2526.16,3263.17,2538.77,3263.17,2554.32z
				 M1765.01,2526.16c15.55,0,28.16,12.61,28.16,28.16c0,15.55-12.61,28.16-28.16,28.16c-15.55,0-28.16-12.61-28.16-28.16
				C1736.85,2538.77,1749.46,2526.16,1765.01,2526.16z"/>
		</g>
		<polygon class="st1" points="1874.09,2343 1101.07,2343 1630.67,2404.42 		"/>
		<polygon class="st1" points="3125.94,2343 3898.95,2343 3369.35,2404.42 		"/>
	</g>
	<path class="st2" d="M3980.16,3482.48c-42.83,3.87-67.88-21.52-82.19-47.66c-8.18-14.93-3.72-33.82,10.39-43.36
		c127.08-85.93,153.1-243.02,108.24-351.51c-56.61-136.89-238.92-265.69-436.26-233.98c-99.21,15.94-155.8,73.24-195.65,140.08
		v-0.01l-0.17,0.31c-0.66,1.11-1.31,2.22-1.96,3.34c-4.96,7.99-10.63,14.68-19.85,13.97c-9.2-0.7-15.79-8.81-34.09-30.7
		c-21.2-25.36-40.69-48.8-58.75-70.64c-21.46,25.64-44.41,48.46-63.01,65.68c28.5,29.49,57.71,60.74,87.75,94.08
		c74.09,82.25,34.44,154.76,130.73,276.21c118.24,149.13,296.82,162.18,380.71,139.36c10.93-2.97,11.24-2.71,21.32-6.42
		c24.23,75.83,76.73,104.33,112.37,118.21c26.86,10.46,54.23,8.56,69.79-2.76C4037.5,3526.3,4034.75,3477.55,3980.16,3482.48z
		 M3536.03,2878.49c140.41-49.89,329.57,40.07,386.65,139.55c57.08,99.47,31.81,246.91-78.77,293.87
		c-146.29,62.12-319.62,9.09-389.78-127.84C3401.83,3082,3395.61,2928.39,3536.03,2878.49z M3760.74,3418.91
		c-31.91,5.01-64.31,4.64-96.47-0.08c-31.97-5.28-63.21-15.37-91.72-30.26c-14.33-7.3-28.05-15.66-41.02-24.94
		c-13.09-9.12-25.37-19.27-36.98-30.01c-23.28-21.44-43.67-45.58-61.17-71.41c-8.6-13.03-16.75-26.3-23.83-40.13
		c-7-13.82-13.66-27.98-17.55-42.97c3.73,6.73,7.97,13.07,12.43,19.26c4.35,6.24,8.9,12.34,13.62,18.28
		c9.41,11.9,19.05,23.53,29.36,34.51c20.39,22.1,42.15,42.68,65.62,60.64c46.63,36.21,100.17,62.12,156.95,71.12
		c56.81,8.65,116.36,2.73,170.38-19.22c27.1-10.86,52.97-25.5,77.03-43.18c24.11-17.65,46.54-38.17,66.39-61.64
		c-13.21,28-32.83,52.76-54.83,75.12c-22.28,22.18-48.25,41.05-76.74,55.61c-14.23,7.3-29.11,13.51-44.47,18.29
		C3792.44,3412.87,3776.68,3416.58,3760.74,3418.91z"/>
	<path class="st2" d="M1746.74,2881.29l-67.44,67.44l57.65-78.47c-2.28-2.62-4.55-5.26-6.8-7.95
		c-18.07,21.84-37.56,45.29-58.75,70.64c-18.3,21.9-24.88,30-34.09,30.7c-9.23,0.71-14.89-5.98-19.85-13.97
		c-0.64-1.12-1.29-2.23-1.96-3.34l-0.17-0.31v0.01c-39.85-66.83-96.44-124.13-195.65-140.08
		c-197.33-31.71-379.65,97.09-436.26,233.98c-55.04,133.1-3.53,339.45,210.55,397.68c83.9,22.82,262.47,9.77,380.71-139.36
		c96.29-121.45,56.64-193.95,130.73-276.21c30.03-33.34,59.25-64.59,87.75-94.08C1779.3,2915.15,1763.02,2899.2,1746.74,2881.29z
		 M1077.34,3018.04c57.08-99.48,246.24-189.45,386.65-139.55c140.42,49.89,134.21,203.5,81.9,305.58
		c-70.17,136.93-243.49,189.96-389.78,127.84C1045.53,3264.95,1020.26,3117.51,1077.34,3018.04z M1590.46,3222.08
		c-7.08,13.83-15.23,27.1-23.83,40.13c-17.5,25.83-37.88,49.97-61.16,71.41c-11.61,10.74-23.88,20.89-36.98,30.01
		c-12.97,9.29-26.69,17.64-41.02,24.94c-28.51,14.89-59.75,24.97-91.72,30.26c-32.16,4.72-64.56,5.09-96.47,0.08
		c-15.95-2.33-31.7-6.03-47-11c-15.36-4.78-30.24-10.99-44.47-18.29c-28.49-14.56-54.47-33.43-76.74-55.61
		c-22-22.36-41.62-47.12-54.83-75.12c19.85,23.47,42.28,43.99,66.39,61.64c24.07,17.68,49.93,32.31,77.03,43.18
		c54.01,21.95,113.57,27.87,170.38,19.22c56.78-9,110.32-34.92,156.95-71.12c23.47-17.96,45.23-38.54,65.62-60.64
		c10.31-10.98,19.95-22.61,29.36-34.51c4.72-5.95,9.27-12.04,13.62-18.28c4.46-6.19,8.69-12.52,12.43-19.26
		C1604.12,3194.11,1597.46,3208.26,1590.46,3222.08z"/>
	<path class="st2" d="M3970.89,398.4c-154.16,144.93-443.15,454.06-681.07,711.12c1.82,1.81,3.64,3.61,5.43,5.47
		c5.32,5.55,10.45,11.26,15.37,17.13c9.8,11.75,18.75,24.27,25.74,37.69c-9.17-12.05-19.87-22.6-31.22-32.28
		c-3.91-3.32-7.99-6.41-12.04-9.54c5.99,6.31,11.8,12.75,17.47,19.38c11.02,13.06,21.45,26.77,29.48,41.73
		c-10.19-13.57-22.33-25.28-34.96-36.32c-5.36-4.63-10.9-9.1-16.48-13.5c6.39,6.93,12.61,13.98,18.67,21.22
		c6.06,7.28,11.98,14.68,17.44,22.43c5.45,7.73,10.65,15.69,14.69,24.19c-5.16-7.87-11.31-14.93-17.67-21.75
		c-6.36-6.82-13.13-13.25-20.02-19.54c-6.53-5.94-13.26-11.71-20.07-17.34c20.84,21.22,39.84,45.01,56.84,68.89
		c69.04-80.1,137.68-160.62,205.7-241.61c35.43-42.32,70.8-84.71,105.65-127.52c34.68-42.93,69.63-85.69,101.52-130.78
		c-30.41,46.12-63.99,90.06-97.27,134.12c-33.46,43.96-67.44,87.5-101.5,130.99c-60.27,76.71-121.09,152.95-182.27,228.95
		c434.03-493.08,611.92-794.67,611.92-794.67c-17.52,207.89-565.95,839.68-596.57,874.81c3.49,6.15,6.77,12.08,9.81,17.72
		l12.83,23.79l17.01-20.98c533.24-657.52,569.92-832.27,574.9-860.6l10.24-90.32L3970.89,398.4z"/>
	<path class="st2" d="M1629.7,1211.53c-61.18-76-122-152.24-182.27-228.95c-34.06-43.49-68.04-87.03-101.5-130.99
		c-33.28-44.07-66.86-88.01-97.27-134.12c31.89,45.08,66.84,87.85,101.52,130.78c34.85,42.81,70.21,85.2,105.65,127.52
		c68.03,81,136.67,161.51,205.7,241.61c17-23.89,36-47.68,56.84-68.89c-6.82,5.63-13.54,11.41-20.07,17.34
		c-6.89,6.28-13.66,12.71-20.02,19.54c-6.35,6.82-12.51,13.89-17.67,21.75c4.04-8.5,9.24-16.46,14.69-24.19
		c5.46-7.75,11.38-15.15,17.44-22.43c6.06-7.24,12.28-14.29,18.67-21.22c-5.57,4.4-11.11,8.87-16.48,13.5
		c-12.63,11.05-24.77,22.76-34.96,36.32c8.03-14.97,18.46-28.67,29.48-41.73c5.66-6.62,11.47-13.07,17.47-19.38
		c-4.05,3.13-8.13,6.22-12.04,9.54c-11.35,9.69-22.06,20.24-31.22,32.28c6.99-13.43,15.95-25.94,25.74-37.69
		c4.92-5.87,10.04-11.58,15.37-17.13c1.79-1.86,3.61-3.66,5.43-5.47c-42.45-45.86-86.54-93.4-131.18-141.35l-45.27,39.45
		l37.87-47.39c-0.83-0.89-1.66-1.78-2.49-2.67l-20.51,16.94l14.06-23.87c-62.01-66.54-124.83-133.58-185.73-197.92l-33.03,27.83
		l25.35-35.94c-1.01-1.07-1.02-1.08-2.03-2.14l-17.01,10.15l10.29-17.25c-129.9-137-249.61-260.08-331.38-336.95l-39.58-37.13
		l10.24,90.32c4.97,28.33,41.66,203.08,574.9,860.6l17.01,20.98l12.83-23.79c3.04-5.64,6.32-11.57,9.81-17.72
		c-30.62-35.13-579.05-666.92-596.57-874.81C1017.78,416.85,1195.66,718.45,1629.7,1211.53z"/>
	<g>
		<path class="st1" d="M845.22,1676.88h301.31v120.52h-90.39v421.83l-120.52-120.52v-301.31h-60.26l-30.13,30.13V1676.88z"/>
		<path class="st1" d="M1345.99,2098.72c-58.26,0-107.97-20.59-149.15-61.77c-41.18-41.18-61.77-90.89-61.77-149.15
			c0-58.25,20.59-107.97,61.77-149.15c41.18-41.18,90.89-61.77,149.15-61.77c58.25,0,107.97,20.59,149.15,61.77
			c41.18,41.18,61.77,90.9,61.77,149.15c0,58.26-20.59,107.97-61.77,149.15C1453.96,2078.13,1404.24,2098.72,1345.99,2098.72z
			 M1409.87,1951.68c17.67-17.67,26.52-38.97,26.52-63.88c0-24.9-8.84-46.2-26.52-63.88c-17.68-17.67-38.97-26.52-63.88-26.52
			c-24.91,0-46.2,8.84-63.88,26.52c-17.68,17.68-26.52,38.97-26.52,63.88c0,24.91,8.84,46.2,26.52,63.88
			c17.67,17.68,38.97,26.52,63.88,26.52C1370.9,1978.19,1392.19,1969.36,1409.87,1951.68z"/>
		<path class="st1" d="M1963.67,1676.88v451.96l-271.18-210.92v180.78h-120.52v-451.96l271.18,225.98v-165.72l-30.13-30.13H1963.67z
			"/>
		<path class="st1" d="M2118.85,1948.06c-100.44,0-150.65-45.6-150.65-136.79c0-89.59,50.21-134.38,150.65-134.38h180.78
			l-120.52,120.52h-60.26c-20.09,0-30.13,4.62-30.13,13.86c0,10.85,10.04,16.27,30.13,16.27h60.26
			c100.43,0,150.65,44.8,150.65,134.38c0,91.2-50.22,136.79-150.65,136.79h-180.78l120.52-120.52h60.26
			c20.08,0,30.13-5.42,30.13-16.27c0-9.24-10.05-13.86-30.13-13.86H2118.85z"/>
		<path class="st1" d="M2535.86,2098.72c-58.26,0-107.97-20.59-149.15-61.77c-41.18-41.18-61.77-90.89-61.77-149.15
			c0-58.25,20.59-107.97,61.77-149.15c41.18-41.18,90.89-61.77,149.15-61.77c58.25,0,107.97,20.59,149.15,61.77
			c41.18,41.18,61.77,90.9,61.77,149.15c0,58.26-20.59,107.97-61.77,149.15C2643.82,2078.13,2594.11,2098.72,2535.86,2098.72z
			 M2599.73,1951.68c17.67-17.67,26.52-38.97,26.52-63.88c0-24.9-8.84-46.2-26.52-63.88c-17.68-17.67-38.97-26.52-63.88-26.52
			c-24.91,0-46.2,8.84-63.88,26.52c-17.68,17.68-26.52,38.97-26.52,63.88c0,24.91,8.84,46.2,26.52,63.88
			c17.67,17.68,38.97,26.52,63.88,26.52C2560.76,1978.19,2582.05,1969.36,2599.73,1951.68z"/>
		<path class="st1" d="M3213.8,2219.24l-301.31-254l-0.6-107.57h60.86c20.08,0,30.13-10.04,30.13-30.13
			c0-20.08-10.05-30.13-30.13-30.13h-90.39v301.31h-120.52v-391.7l-30.13-30.13h241.05c100.43,0,150.65,50.22,150.65,150.65
			c0,80.35-20.09,125.65-60.26,135.89L3213.8,2219.24z"/>
		<path class="st1" d="M3274.06,1676.88v421.83h-120.52v-391.7l-30.13-30.13H3274.06z"/>
		<path class="st1" d="M3420.8,1676.88v210.92c0,60.26,20.08,90.39,60.26,90.39c40.17,0,60.26-30.13,60.26-90.39v-210.92h120.52
			v210.92c0,140.61-60.26,210.92-180.78,210.92c-120.52,0-180.79-70.3-180.79-210.92v-180.78l-30.13-30.13H3420.8z"/>
		<path class="st1" d="M3838.41,1676.88l90.39,210.92l90.39-210.92h150.65v421.83h-120.52v-200.97l-120.52,261.23l-120.52-260.33
			v200.07h-120.52v-391.7l-30.13-30.13H3838.41z"/>
	</g>
</g>
<g>
</g>
<g>
</g>
<g>
</g>
<g>
</g>
<g>
</g>
<g>
</g>
</svg>
